<svg id="Layer_1" data-name="Layer 1" xmlns="http://www.w3.org/2000/svg" viewBox="0 0 512 512">
  <defs>
    <style>
      .cls-1 {
        fill: #6d5df6;
      }

      .cls-2 {
        fill: #fff;
      }
	  
	  .cls-3 {
		fill: #0a0a0a;
	  }
    </style>
  </defs>
  <title>favicon</title>
  <circle class="cls-3" cx="256" cy="256" r="256"/>
  <path id="bellZ" class="cls-1" d="M282.94,213c-32.72-.06-63.31,2.92-94.48,13.1-3.07,1-6.49,2.66-9-.13-.83-.68-1.81-3.24-1.48-4.29,5.19-16.12,20.47-28.45,37-31.55a125.66,125.66,0,0,1,17.62-2.18c28.62-1.48,57.06-2.53,85.74-1.18,5,.24,20.57-.55,25.66,2.23,4.79,5.14-6.59,13.7-9.45,16.94-40.18,38.92-88,68.56-135.37,97.82-17.48,10.85-53.43,31.8-63.22,49.08-4.62-.84-8.68-10.5-9.82-14.65-5.42-19.66,5.62-36.79,18.71-50.43,2.28-2.39,7.09-5.27,8.45-8.17,6.72-4.12,14.42-7,21.68-10.1C212.12,253.44,251.39,239.09,282.94,213Z"/>
  <path id="bellBody3" class="cls-2" d="M247.92,49.17A101.6,101.6,0,0,1,320.48,74c25.65,22.16,38.92,55.4,38,89-.2,7.63-4.26,11.26-10.38,5.41a67.44,67.44,0,0,1-1.66-7.47C334.06,104.16,281,75.91,227,95.51c-36.62,14.56-56.71,48.57-60.47,86.65-.37,3.34-.49,6.57-.64,9.91-.21,3.52.68,8.44-1.51,11.42-2.66,3.62-9.37,4-12.68,1.11a8.23,8.23,0,0,1-2.3-3.06c-2.78-9.58-3.66-19.84-4.53-29.74-2.82-31,6.84-62.39,27.48-85.87a107.83,107.83,0,0,1,75.6-36.76Z"/>
  <path id="bellBody1" class="cls-2" d="M153.24,279.54c-1.36,2.91-6.16,5.79-8.45,8.18-13.08,13.64-24.13,30.77-18.71,50.43,1.14,4.15,5.2,13.81,9.82,14.65a50.6,50.6,0,0,0,9.11,6.67c33.48,17.29,86.46,13.26,121.68,6.81a399.67,399.67,0,0,0,39.21-9.64q11.12-3.51,22-7.72c4.21-1.67,8.34-3.51,12.62-5.06a4,4,0,0,1,5.19,5.39c-1.27,3.12-5.48,6.42-8,8.71C324.14,370,308.35,379.22,292,386.76c-41.9,18.9-89.89,28.22-135.65,21-25.36-4-54.14-15-65.31-40a47.17,47.17,0,0,1-.85-36C99.8,306.78,129.83,289.89,153.24,279.54Z"/>
  <path id="bellBody2" class="cls-2" d="M351.66,210.7a10.33,10.33,0,0,1,6.16,1.26c27.09,15.27,51.78,39.71,61.62,69.84,16.63,50.89-.88,105.91-55.12,124-5.87,1.92-30.47,10.33-24-4.78.32-.75,8.5-6.33,9.86-7.39a90.24,90.24,0,0,0,23-26.13c26.38-44.75,11-100.76-23.51-136.21-4.24-4.35-9.81-9.28-5.3-16.28C346.05,212.37,348.53,211.29,351.66,210.7Z"/>
  <path id="bellHeart" class="cls-1" d="M219.47,421.86c23.12.28,46.26-.24,69.38-.15,4.34,0,7.57,1.41,7,6.45-1.21,10.14-6.26,18.41-13.78,25.13-24.21,19-60,9.34-67-22.12C214,426.87,214.2,422.39,219.47,421.86Z"/>
</svg>
