<?xml version="1.0" standalone="no"?>
<!DOCTYPE svg PUBLIC "-//W3C//DTD SVG 20010904//EN"
 "http://www.w3.org/TR/2001/REC-SVG-20010904/DTD/svg10.dtd">
<svg version="1.0" xmlns="http://www.w3.org/2000/svg"
 width="607.630179pt" height="737.066101pt" viewBox="0 0 607.630179 737.066101"
 preserveAspectRatio="xMidYMid meet">
<metadata>
Created by potrace 1.12, written by Peter Selinger 2001-2015
</metadata>
<g transform="translate(-323.387473,995.787037) scale(0.100000,-0.100000)"
fill="#000000" stroke="none">
<path d="M6095 9949 c-409 -31 -797 -187 -1100 -441 -392 -327 -638 -771 -710
-1280 -19 -137 -19 -441 1 -621 21 -191 59 -386 82 -417 46 -61 155 -84 210
-43 63 47 66 58 74 266 13 355 79 624 224 907 246 478 677 800 1192 891 84 15
162 21 277 21 177 1 280 -11 424 -48 559 -145 1003 -634 1131 -1244 13 -58 27
-116 33 -128 27 -57 117 -65 158 -14 21 26 21 33 16 222 -6 206 -19 301 -61
467 -94 368 -280 691 -547 949 -305 294 -709 477 -1134 513 -130 12 -125 12
-270 0z"/>
<path d="M6260 7549 c-692 -25 -868 -60 -1085 -214 -148 -105 -305 -324 -305
-424 0 -51 36 -91 83 -91 16 0 97 21 181 46 181 55 344 94 526 128 284 52 723
90 969 84 l124 -3 -79 -63 c-315 -252 -765 -488 -1614 -845 -456 -192 -585
-249 -593 -263 -4 -8 -12 -14 -18 -14 -16 0 -354 -172 -454 -230 -190 -112
-357 -240 -471 -363 -297 -320 -368 -681 -204 -1026 54 -112 111 -191 205
-279 280 -266 739 -421 1343 -452 497 -26 1063 59 1602 240 543 183 1024 456
1327 753 45 44 84 90 87 103 9 34 -10 73 -41 85 -24 9 -51 1 -203 -60 -973
-388 -2090 -535 -2890 -381 -265 52 -524 161 -618 262 -22 24 -22 58 0 58 5 0
6 5 3 10 -3 6 -1 10 4 10 6 0 11 5 11 11 0 7 9 21 19 33 89 96 177 179 235
220 15 11 37 28 49 38 30 24 35 28 92 67 28 19 52 38 55 41 17 19 439 289 895
572 747 465 1114 714 1533 1040 132 103 324 260 358 292 6 6 49 45 94 86 121
108 365 352 379 377 14 27 14 78 1 103 -6 11 -27 24 -48 29 -95 26 -1055 38
-1552 20z"/>
<path d="M7957 7108 c-51 -14 -101 -65 -116 -120 -18 -64 -2 -117 53 -171 70
-69 187 -205 263 -307 486 -647 596 -1436 292 -2079 -130 -275 -330 -507 -586
-679 -34 -23 -69 -52 -77 -64 -24 -34 -20 -82 10 -117 22 -27 32 -31 76 -31
67 0 256 43 382 87 235 82 423 199 596 373 206 206 338 443 415 747 64 253 60
635 -9 918 -131 536 -493 1012 -1029 1351 -164 105 -189 113 -270 92z"/>
<path d="M5555 3295 c-31 -30 -33 -82 -5 -189 61 -239 258 -431 509 -498 99
-26 268 -28 364 -5 297 73 528 322 553 598 6 63 5 69 -19 93 l-26 26 -676 0
-676 0 -24 -25z"/>
</g>
</svg>
